<svg xmlns="http://www.w3.org/2000/svg" viewBox="0 0 1000 200">
  <path fill="currentColor" d="M580.4 124.6v-35.8c0-5.4-2.7-8.1-8.1-8.1h-13.5v52h13.5c5.4 0 8.1-2.7 8.1-8.1zm-21.6-52h21.6c10.8 0 16.2 5.4 16.2 16.2v35.8c0 10.8-5.4 16.2-16.2 16.2h-21.6v-68.2z"/>
  <path fill="currentColor" d="M289.7 124.6v-35.8c0-5.4-2.7-8.1-8.1-8.1h-13.5v52h13.5c5.4 0 8.1-2.7 8.1-8.1zm-21.6-52h21.6c10.8 0 16.2 5.4 16.2 16.2v35.8c0 10.8-5.4 16.2-16.2 16.2h-21.6v-68.2z"/>
  <path fill="currentColor" d="M85.3 72.6v68.2h8.1v-68.2h-8.1zm-42.7 0v68.2h8.1v-68.2h-8.1z"/>
  <path fill="currentColor" d="M127.9 72.6v68.2H136v-68.2h-8.1z"/>
  <path fill="currentColor" d="M170.6 72.6v68.2h8.1v-68.2h-8.1z"/>
  <path fill="currentColor" d="M213.2 72.6v68.2h8.1v-68.2h-8.1z"/>
  <path fill="currentColor" d="M255.9 72.6v68.2h8.1v-68.2h-8.1z"/>
</svg> 